# xmcd
#
# Track frame offsets: 
#        150
#        17157
#        31580
#        51572
#        70681
#        81944
#        99155
#        114011
#        131123
#        146107
#        170145
#        183103
#        193129
#        208982
#        221534
#        238220
#        248051
#        259459
#        277325
#        293330
#        299978
#
# Disc length: 4219 seconds
#
# Revision: 0
# Processed by: cddbd v1.5.2PL0 Copyright (c) Steve Scherf et al.
# Submitted via: ExactAudioCopyFreeDBPlugin 1.0
#
DISCID=52107915
DTITLE=Arti - ŚPIEWNIK - Największe polskie hity wszech czasów
DYEAR=2014
DGENRE=Country
TTITLE0=Biały mis
TTITLE1=Cyt, cyt (Nocka szumiała)
TTITLE2=Czerwona jarzębina
TTITLE3=Gdybym miał gitarę
TTITLE4=Głęboka studzienka
TTITLE5=Granica (Grajek)
TTITLE6=Hej, bystra woda
TTITLE7=Hej, sokoły
TTITLE8=Hej, szalała, szalała
TTITLE9=Miła moja
TTITLE10=My, Cyganie
TTITLE11=Płonie ognisko w lesie
TTITLE12=Santa Maria
TTITLE13=Serduszko puka w rytmie cha-cha
TTITLE14=Szła dzieweczka do laseczka
TTITLE15=Tylko we Lwowie
TTITLE16=U cioci na imieninach
TTITLE17=Wszystkie rybki śpią w jeziorze
TTITLE18=Zabrałaś serce moje
TTITLE19=Zielony mosteczek
TTITLE20=Babol
EXTD=
EXTT0=
EXTT1=
EXTT2=
EXTT3=
EXTT4=
EXTT5=
EXTT6=
EXTT7=
EXTT8=
EXTT9=
EXTT10=
EXTT11=
EXTT12=
EXTT13=
EXTT14=
EXTT15=
EXTT16=
EXTT17=
EXTT18=
EXTT19=
EXTT20=
PLAYORDER=
